<svg viewBox="7 5 124 22" fill="none" xmlns="http://www.w3.org/2000/svg"><path d="M15.7335 5.92584V8.88881C15.7335 9.06881 15.5875 9.21473 15.4075 9.21473H12.4446C11.97 9.21473 11.5853 9.59944 11.5853 10.074V13.1555C11.5853 13.63 11.97 14.0147 12.4446 14.0147H15.5261C16.0006 14.0147 16.3853 13.63 16.3853 13.1555V10.1925C16.3853 10.0125 16.5312 9.86658 16.7112 9.86658H19.6742C19.8542 9.86658 20.0001 10.0125 20.0001 10.1925V17.5407C20.0001 17.7207 19.8542 17.8666 19.6742 17.8666H12.3261C12.1461 17.8666 12.0001 17.7207 12.0001 17.5407V14.4592C12.0001 13.9846 11.6154 13.5999 11.1409 13.5999H8.05939C7.58483 13.5999 7.20013 13.9846 7.20013 14.4592V26.074C7.20013 26.5485 7.58483 26.9333 8.05939 26.9333H11.1409C11.6154 26.9333 12.0001 26.5485 12.0001 26.074V22.9925C12.0001 22.8125 12.1461 22.6666 12.3261 22.6666H19.6742C19.8542 22.6666 20.0001 22.8125 20.0001 22.9925V26.074C20.0001 26.5485 20.3848 26.9333 20.8594 26.9333H23.9409C24.4154 26.9333 24.8001 26.5485 24.8001 26.074V5.92584C24.8001 5.45129 24.4154 5.06659 23.9409 5.06659H16.5927C16.1182 5.06659 15.7335 5.45129 15.7335 5.92584Z" fill="#FFFFFF" stroke="#FFFFFF" stroke-width="0.533333"/><path d="M39.9748 25L46.4481 6.9907H51.0323L57.5307 25H52.8458L51.7879 21.7508H45.4909L44.4582 25H39.9748ZM46.5236 18.5519H50.7552L49.3951 14.1944C49.0928 13.2625 48.6898 11.6504 48.6898 11.6504H48.6394C48.6394 11.6504 48.2112 13.2625 47.909 14.1944L46.5236 18.5519ZM58.5449 25V12.1038H62.4742V14.1189H62.5498C63.4566 12.5824 64.5145 11.9023 66.0761 11.9023C66.4539 11.9023 66.7058 11.9275 66.8821 12.0031V15.5294H66.7814C64.2626 15.1767 62.6506 16.4109 62.6506 19.2068V25H58.5449ZM73.5463 25.1511C71.1534 25.1511 69.4406 24.3703 69.4406 21.5996V14.673H67.7279V12.1038H69.4406V8.0234H73.4455V12.1038H75.788V14.673H73.4455V20.7181C73.4455 21.7256 73.9996 21.9775 74.8812 21.9775C75.2338 21.9775 75.6368 21.9523 75.788 21.9523V24.9496C75.4353 25.0504 74.6545 25.1511 73.5463 25.1511ZM83.4376 25.3778C79.1808 25.3778 76.5613 22.4308 76.5613 18.5267C76.5613 14.673 79.2564 11.726 83.1857 11.726C85.0244 11.726 86.4853 12.3305 87.5936 13.338C89.13 14.7486 89.8857 16.9903 89.8605 19.6098H80.5914C80.8432 21.3478 81.8004 22.4308 83.488 22.4308C84.571 22.4308 85.2763 21.9523 85.6289 21.1463H89.6338C89.3567 22.3049 88.6011 23.4132 87.4676 24.194C86.3846 24.9496 85.0748 25.3778 83.4376 25.3778ZM80.6166 17.1666H85.7045C85.5534 15.6301 84.5962 14.6478 83.2613 14.6478C81.6996 14.6478 80.8936 15.6301 80.6166 17.1666ZM91.235 25V12.1038H95.1643V13.9425H95.2399C96.0459 12.6076 97.2801 11.726 99.144 11.726C100.832 11.726 102.116 12.6076 102.771 13.9929H102.821C103.829 12.4313 105.214 11.726 106.877 11.726C109.798 11.726 111.259 13.7159 111.259 16.6125V25H107.154V17.3429C107.154 15.9576 106.574 15.1516 105.34 15.1516C104.03 15.1516 103.3 16.2346 103.3 17.7711V25H99.1944V17.3429C99.1944 15.9576 98.615 15.1516 97.3808 15.1516C96.0963 15.1516 95.3406 16.2346 95.3406 17.7711V25H91.235ZM113.127 25V12.1038H117.232V25H113.127ZM113.127 10.3155V6.9907H117.232V10.3155H113.127ZM124.693 25.403C120.915 25.403 118.547 23.665 118.422 20.8188H122.3C122.452 22.1034 123.308 22.7331 124.668 22.7331C125.902 22.7331 126.683 22.2797 126.683 21.4485C126.683 20.2899 125.121 20.1639 123.409 19.8617C121.167 19.4839 118.774 18.8794 118.774 15.8568C118.774 13.1365 121.293 11.726 124.341 11.726C127.993 11.726 129.958 13.3128 130.159 15.8568H126.381C126.23 14.6982 125.449 14.3455 124.315 14.3455C123.308 14.3455 122.527 14.7234 122.527 15.5294C122.527 16.4361 123.988 16.5621 125.625 16.8643C127.892 17.2421 130.562 17.8215 130.562 21.1211C130.562 23.9421 128.068 25.403 124.693 25.403Z" fill="#FFFFFF"/></svg>