<svg viewBox="0 0 500 91" fill="none" xmlns="http://www.w3.org/2000/svg"><path fill-rule="evenodd" clip-rule="evenodd" d="M25.6887 28.3035C30.0501 32.66 27.1731 38.3067 21.0086 38.3067L0.349607 38.3067L0.349608 51.6558L21.0084 51.6558C27.173 51.6558 30.0516 57.3026 25.6901 61.6591L7.5699 79.7527L17.0203 89.1919L40.0217 66.2179C51.7642 54.4893 51.7643 35.4734 40.0217 23.7447L17.0203 0.770861L7.56995 10.2103L25.6887 28.3035Z" fill="#FFFFFF"/><path fill-rule="evenodd" clip-rule="evenodd" d="M79.802 28.3035C75.4406 32.66 78.3176 38.3067 84.4821 38.3067L105.141 38.3067L105.141 51.6558L84.4823 51.6558C78.3177 51.6558 75.4391 57.3026 79.8006 61.6591L97.9208 79.7527L88.4704 89.1919L65.469 66.2179C53.7265 54.4893 53.7264 35.4734 65.4691 23.7447L88.4705 0.770861L97.9208 10.2103L79.802 28.3035Z" fill="#FFFFFF"/><g clip-path="url(#clip0_2217_2350)"><path d="M166.357 90.192C141.016 90.192 125.13 72.2893 125.13 45.3091C125.13 18.5811 141.646 0.42627 167.24 0.42627C186.781 0.42627 201.028 11.773 204.306 30.054H192.707C189.303 17.8247 179.973 10.5123 166.735 10.5123C148.202 10.5123 136.351 24.8849 136.351 45.3091C136.351 65.6073 147.698 80.1059 166.231 80.1059C179.847 80.1059 189.303 72.9196 192.581 60.5642H204.18C200.902 78.8452 186.277 90.192 166.357 90.192ZM243.648 24.3806C258.021 24.3806 269.746 32.3233 269.746 53.6301V89.4355H259.408V54.2605C259.408 40.8965 252.978 33.8362 241.883 33.8362C229.906 33.8362 222.468 42.7876 222.468 57.2863V89.4355H212.129V1.18272H222.468V35.7274C226.25 29.6757 232.806 24.3806 243.648 24.3806ZM336.002 79.9799H339.28V89.4355H333.606C325.033 89.4355 322.133 85.7793 322.007 79.4756C317.973 85.275 311.543 90.192 300.448 90.192C286.328 90.192 276.746 83.1318 276.746 71.4067C276.746 58.547 285.698 51.3607 302.592 51.3607H321.503V46.9481C321.503 38.6271 315.577 33.5841 305.491 33.5841C296.414 33.5841 290.362 37.8707 289.102 44.4266H278.763C280.276 31.819 290.488 24.3806 305.996 24.3806C322.386 24.3806 331.841 32.5755 331.841 47.5785V75.6933C331.841 79.0973 333.102 79.9799 336.002 79.9799ZM321.503 63.2118V60.0599H301.583C292.38 60.0599 287.211 63.464 287.211 70.7764C287.211 77.0801 292.632 81.3667 301.205 81.3667C314.065 81.3667 321.503 73.9282 321.503 63.2118ZM343.445 89.4355V1.18272H353.783V59.3035L386.059 25.137H398.792L373.703 51.739L400.557 89.4355H388.076L366.769 59.1774L353.783 72.5414V89.4355H343.445ZM433.809 25.137H436.709V35.2231H431.539C418.049 35.2231 414.393 46.4438 414.393 56.6559V89.4355H404.055V25.137H413.006L414.393 34.8448C417.419 29.9279 422.336 25.137 433.809 25.137ZM496.531 79.9799H499.809V89.4355H494.136C485.563 89.4355 482.663 85.7793 482.537 79.4756C478.503 85.275 472.073 90.192 460.978 90.192C446.858 90.192 437.276 83.1318 437.276 71.4067C437.276 58.547 446.227 51.3607 463.121 51.3607H482.033V46.9481C482.033 38.6271 476.107 33.5841 466.021 33.5841C456.944 33.5841 450.892 37.8707 449.631 44.4266H439.293C440.806 31.819 451.018 24.3806 466.525 24.3806C482.915 24.3806 492.371 32.5755 492.371 47.5785V75.6933C492.371 79.0973 493.632 79.9799 496.531 79.9799ZM482.033 63.2118V60.0599H462.113C452.909 60.0599 447.74 63.464 447.74 70.7764C447.74 77.0801 453.161 81.3667 461.735 81.3667C474.594 81.3667 482.033 73.9282 482.033 63.2118Z" fill="#FFFFFF"/></g><defs><clipPath id="clip0_2217_2350"><rect width="374.887" height="90.2256" fill="#FFFFFF" transform="translate(124.962)"/></clipPath></defs></svg>