<svg xmlns="http://www.w3.org/2000/svg" viewBox="0 0 285 48" fill="none"><path fill="#FFFFFF" fill-rule="evenodd" d="M57.76 40.184h8.886c0-.372-.006-.742-.018-1.111h-6.932l6.86-1.365a33.423 33.423 0 0 0-.253-2.328l-6.504 1.294 6.288-2.604a33.065 33.065 0 0 0-.544-2.42l-6.153 2.548 5.778-3.86a33.072 33.072 0 0 0-.878-2.486l-5.846 3.906 5.268-5.268a33.222 33.222 0 0 0-1.263-2.508l-5.487 5.489 4.633-6.935a33.428 33.428 0 0 0-1.697-2.46l-4.929 7.377 3.692-8.913a33.512 33.512 0 0 0-2.17-2.307l-3.766 9.092a24.33 24.33 0 0 1 5.035 14.859Zm-48.874 0c0-.673.027-1.34.08-2H.06c-.04.662-.059 1.329-.059 2h8.886Zm.667-5.693L.83 32.757c.29-1.28.655-2.53 1.089-3.748l8.846 1.76c-.5 1.196-.907 2.44-1.213 3.722Zm2.908-7.04L4.176 24.02a33.347 33.347 0 0 1 2.051-3.238l8.517 3.527a24.518 24.518 0 0 0-2.283 3.143Zm4.804-5.688-7.58-5.066a33.543 33.543 0 0 1 2.812-2.529l7.896 5.276a24.514 24.514 0 0 0-3.128 2.319Zm6.053-3.88-6.597-6.598a33.195 33.195 0 0 1 3.344-1.683l6.963 6.963c-1.28.34-2.52.783-3.71 1.317Zm6.576-1.897L24.573 8.02a33.14 33.14 0 0 1 3.627-.769l5.68 8.501a24.656 24.656 0 0 0-3.986.232Zm6.387-.062-3.75-9.054a33.982 33.982 0 0 1 3.653.112l4.04 9.753a24.312 24.312 0 0 0-3.943-.811Zm5.66 1.386-1.945-9.781c1.178.24 2.334.541 3.463.901l2.11 10.601a24.331 24.331 0 0 0-3.628-1.721Zm4.637 2.34V9.602c1.067.463 2.105.98 3.11 1.548v10.887a24.54 24.54 0 0 0-3.11-2.385Zm3.555 2.797 1.95-9.808c.92.628 1.807 1.3 2.657 2.015l-2.1 10.56a24.577 24.577 0 0 0-2.507-2.767Z" clip-rule="evenodd"/><path fill="#FFFFFF" fill-rule="evenodd" d="M48.874 40.184h8.886c0-.426-.011-.848-.033-1.268l-4.42-.078 4.36-.788a24.397 24.397 0 0 0-.472-3.113l-5.007.905 4.773-1.88c-.26-.988-.58-1.951-.955-2.887l-5.462 2.152 5.003-3.218a24.401 24.401 0 0 0-1.381-2.59l-5.683 3.655 4.95-4.779a24.542 24.542 0 0 0-1.742-2.23l-5.572 5.38 4.516-6.508a24.581 24.581 0 0 0-2.027-1.82l-5.034 7.256 3.615-8.314a24.45 24.45 0 0 0-2.23-1.37l-3.566 8.2c4.485 2.727 7.48 7.661 7.48 13.295Zm-31.102 0H8.886c0-.413.01-.824.03-1.232l8.893.155a15.78 15.78 0 0 0-.037 1.077Zm25.382-22.38a24.25 24.25 0 0 0-2.346-.89l-1.9 8.752c.8.308 1.568.68 2.298 1.11l1.948-8.971Zm-4.527-1.48a24.365 24.365 0 0 0-2.363-.402l-.157 8.96c.81.146 1.599.355 2.36.622l.16-9.18Zm-5.304-.577c-.623 0-1.24.023-1.852.069l1.595 8.819a15.667 15.667 0 0 1 2.32.133l-1.631-9.018a24.811 24.811 0 0 0-.432-.003Zm-4.637 9.589-4.92-7.65c-.633.27-1.25.564-1.854.883l4.836 7.518a15.446 15.446 0 0 1 1.938-.751Zm-3.261 1.449-6.283-6.506a24.55 24.55 0 0 0-1.53 1.187l6.196 6.416a15.592 15.592 0 0 1 1.617-1.097Zm-10.307-2.903c-.405.452-.794.919-1.165 1.4l7.316 5.075c.387-.473.8-.924 1.24-1.348l-7.391-5.127Zm-3.18 4.465a24.352 24.352 0 0 0-.774 1.52l8.155 3.546c.25-.515.527-1.014.83-1.496l-8.21-3.57Zm-2.116 5.116a24.261 24.261 0 0 0-.387 1.545l8.686 1.886c.112-.524.251-1.037.415-1.54l-8.714-1.891Zm22.251-8.78c-.742.058-1.469.17-2.178.329l-3.282-8.333a24.259 24.259 0 0 1 2.11-.5l3.35 8.503Z" clip-rule="evenodd"/><path fill="#FFFFFF" fill-rule="evenodd" d="m47.633 40.183 1.241-.043c0-.248-.007-.495-.02-.74l-7.537.263-.133-.021 7.52-1.771a15.47 15.47 0 0 0-.15-.84l-7.14 1.681 6.78-3.09c-.094-.309-.198-.614-.312-.915l-6.35 2.894 5.8-4.176a15.596 15.596 0 0 0-.505-.959l-5.46 3.93 4.735-5.077c-.23-.33-.47-.65-.724-.96l-4.49 4.813 3.599-5.814a15.61 15.61 0 0 0-.96-.91l-3.44 5.558 2.39-6.395a15.58 15.58 0 0 0-1.204-.796l-2.305 6.165 1.109-6.808a15.449 15.449 0 0 0-1.44-.608l-1.076 6.61-.245-7.024a15.458 15.458 0 0 0-1.642-.34l.24 6.852-1.65-7.001a15.787 15.787 0 0 0-1.789-.006l1.614 6.852-3.056-6.707c-.632.093-1.252.225-1.857.392l2.992 6.564-4.394-6.104c-.627.24-1.234.518-1.818.833l4.287 5.956-5.563-5.187c-.583.39-1.139.82-1.663 1.284l5.395 5.03-6.457-3.995c-.501.536-.964 1.108-1.386 1.711l6.21 3.843-6.987-2.613c-.378.665-.708 1.361-.986 2.083l6.636 2.48-7.08-1.152a15.481 15.481 0 0 0-.475 2.36l6.605 1.076-6.709.235c-.007.195-.01.39-.01.587h8.886a6.665 6.665 0 0 1 13.329 0h7.645Z" clip-rule="evenodd"/><path fill="#FFFFFF" d="M285 26.785h-18.603c.73 3.604 3.311 5.6 7.11 5.6 2.776 0 4.431-.535 7.11-2.386l2.825 4.091c-3.117 2.581-5.991 3.604-10.13 3.604-7.695 0-13.149-5.795-13.149-13.247 0-7.45 5.698-13.246 12.905-13.246 7.841 0 11.932 6.088 11.932 13.344v2.24Zm-18.652-4.383h12.662c-.292-3.068-2.094-5.99-5.893-5.99-3.458 0-6.087 2.143-6.769 5.99ZM233.462 45.096l1.558-5.113c2.289 1.071 4.87 1.753 7.5 1.753 6.136 0 7.743-2.532 7.743-6.818V32.97c-1.363 1.753-4.188 3.993-8.425 3.993-6.818 0-11.639-5.454-11.639-12.808 0-7.402 4.821-12.954 11.639-12.954 4.578 0 7.695 2.045 9.497 4.334l1.071-3.798h3.945v22.06c0 9.351-4.967 13.247-13.344 13.247-4.821 0-8.035-1.168-9.545-1.948Zm9.886-13.684c4.091 0 6.915-2.971 6.915-7.257 0-4.285-2.824-7.402-6.915-7.402-4.188 0-7.013 2.97-7.013 7.402 0 4.383 2.825 7.257 7.013 7.257ZM222.442 37.158l-1.071-3.847c-1.802 2.289-4.919 4.383-9.497 4.383-6.818 0-11.639-5.893-11.639-13.247 0-7.402 4.821-13.246 11.639-13.246 4.237 0 7.062 2.289 8.425 4.042V3.193h6.088v33.965h-3.945Zm-9.058-5.016c4.091 0 6.915-3.409 6.915-7.695 0-4.334-2.824-7.694-6.915-7.694-4.188 0-7.013 3.263-7.013 7.695 0 4.383 2.825 7.694 7.013 7.694ZM189.656 3.701c0-2.045 1.559-3.701 3.653-3.701a3.7 3.7 0 0 1 3.701 3.701 3.7 3.7 0 0 1-3.701 3.701c-2.094 0-3.653-1.655-3.653-3.7Zm6.77 33.457h-6.088V11.737h6.088v25.421ZM177.971 37.158h-6.088V11.737h3.896l1.461 4.48c1.364-2.435 3.604-5.357 10.13-4.967l-.828 6.477c-6.526-.438-8.571 2.97-8.571 7.061v12.37ZM155.627 37.158h-14.415V3.068h13.198c5.552 0 12.223 2.289 12.223 9.35 0 4.043-2.581 6.137-4.723 7.257v.049c2.288.974 5.941 3.116 5.941 8.133 0 6.866-5.795 9.301-12.224 9.301Zm-8.181-28.684v8.814h7.11c3.75 0 5.795-1.704 5.795-4.285 0-3.263-2.143-4.53-6.234-4.53h-6.671Zm0 14.123v9.155h7.84c4.383 0 6.283-1.46 6.283-4.431 0-2.825-2.289-4.724-6.137-4.724h-7.986ZM137.129 26.785h-18.604c.731 3.604 3.312 5.6 7.11 5.6 2.776 0 4.432-.535 7.111-2.386l2.824 4.091c-3.117 2.581-5.99 3.604-10.129 3.604-7.695 0-13.149-5.795-13.149-13.247 0-7.45 5.698-13.246 12.905-13.246 7.841 0 11.932 6.088 11.932 13.344v2.24Zm-18.652-4.383h12.662c-.293-3.068-2.095-5.99-5.893-5.99-3.458 0-6.088 2.143-6.769 5.99ZM104.535 37.158l-1.072-3.847c-1.801 2.289-4.918 4.383-9.496 4.383-6.818 0-11.64-5.893-11.64-13.247 0-7.402 4.822-13.246 11.64-13.246 4.237 0 7.061 2.289 8.425 4.042V3.193h6.088v33.965h-3.945Zm-9.058-5.016c4.09 0 6.915-3.409 6.915-7.695 0-4.334-2.825-7.694-6.915-7.694-4.189 0-7.013 3.263-7.013 7.695 0 4.383 2.825 7.694 7.013 7.694Z"/></svg>